# xmcd
#
# Track frame offsets:
#	150
#	24294
#	43647
#	61033
#	83982
#	100336
#	122595
#	144286
#	181418
#	201176
#	224594
#	249911
#	272593
#	293737
#	312507
#
# Disc length: 4406 seconds
#
# Revision: 3
# Processed by: cddbd v1.5.2PL0 Copyright (c) Steve Scherf et al.
# Submitted via: EZCDAudioConverter 8.0.2.1
#
DISCID=d311340f
DTITLE=Nguyên Khang, Diễm Liên - Rong Rêu
DYEAR=2011
DGENRE=Pop
TTITLE0=Nguyên Khang, Diễm Liên - Mai tôi đi
TTITLE1=Nguyên Khang - Tưởng niệm
TTITLE2=Diễm Liên - Sợi tóc
TTITLE3=Nguyên Khang, Diễm Liên - Bây giờ còn nhớ hay không
TTITLE4=Nguyên Khang, Diễm Liên - Khi xưa ta bé
TTITLE5=Nguyên Khang, Diễm Liên - Kỳ diệu, Anh còn nợ em
TTITLE6=Nguyên Khang - Dòng đời
TTITLE7=Nguyên Khang, Diễm Liên - Bây giờ tháng mấy, Tuổi xa người
TTITLE8=Nguyên Khang - Rong Rêu
TTITLE9=Nguyên Khang, Diễm Liên - LK Mùa thu
TTITLE10=Nguyên Khang, Diễm Liên - Mùa xuân trên đỉnh bình yên, Tiếng dương cầ
TTITLE10=m
TTITLE11=Nguyên Khang, Diễm Liên - Trời chư muốn sáng
TTITLE12=Nguyên Khang, Diễm Liên - Vũng lầy của chúng ta
TTITLE13=Nguyên Khang, Diễm Liên - Lệ đá
TTITLE14=Diễm Liên - Chấp nhận
EXTD=
EXTT0=
EXTT1=
EXTT2=
EXTT3=
EXTT4=
EXTT5=
EXTT6=
EXTT7=
EXTT8=
EXTT9=
EXTT10=
EXTT11=
EXTT12=
EXTT13=
EXTT14=
PLAYORDER=
